<svg width="701" height="233" viewBox="0 0 701 233" fill="none" xmlns="http://www.w3.org/2000/svg">
<path d="M31.621 206.648C28.8057 206.648 25.7843 206.202 22.557 205.309C19.3983 204.416 16.48 203.18 13.802 201.601H13.699L14.008 205.927H6.077V181.825H12.875C13.7677 187.456 15.9307 191.782 19.364 194.803C22.7973 197.756 26.986 199.232 31.93 199.232C35.5007 199.232 38.4533 198.305 40.788 196.451C43.1227 194.528 44.29 192.228 44.29 189.55C44.29 187.353 43.5003 185.464 41.921 183.885C40.4103 182.306 38.6937 181.07 36.771 180.177C34.917 179.284 31.93 178.014 27.81 176.366C20.2567 173.345 14.4543 169.911 10.403 166.066C6.42033 162.221 4.429 157.174 4.429 150.925C4.429 147.766 5.21867 144.711 6.798 141.758C8.37733 138.737 10.9523 136.23 14.523 134.239C18.1623 132.248 22.8317 131.252 28.531 131.252C31.4837 131.252 34.5737 131.698 37.801 132.591C41.0283 133.415 43.7063 134.617 45.835 136.196H45.938L45.526 131.973H53.56V155.972H46.762C45.8693 150.341 43.878 146.05 40.788 143.097C37.7667 140.144 33.887 138.668 29.149 138.668C26.059 138.668 23.381 139.526 21.115 141.243C18.9177 142.891 17.819 144.985 17.819 147.526C17.819 150.547 19.0893 153.088 21.63 155.148C24.1707 157.208 28.4623 159.474 34.505 161.946C41.4403 164.693 47.071 167.886 51.397 171.525C55.7917 175.096 57.989 179.868 57.989 185.842C57.989 189.893 56.8903 193.498 54.693 196.657C52.4957 199.816 49.4057 202.288 45.423 204.073C41.4403 205.79 36.8397 206.648 31.621 206.648ZM85.4715 206.648C74.7595 206.648 69.4035 200.056 69.4035 186.872L69.6095 162.049H62.6055V153.5C64.8028 153.5 66.8628 152.813 68.7855 151.44C70.7768 150.067 72.4592 148.384 73.8325 146.393C75.2058 144.402 76.1672 142.479 76.7165 140.625H84.3385L84.2355 153.5H97.3165V161.431L84.2355 161.74L84.1325 187.078C84.1325 193.739 86.1925 197.069 90.3125 197.069C93.6085 197.069 96.7328 195.009 99.6855 190.889L104.629 195.524C101.402 200.262 98.1748 203.318 94.9475 204.691C91.7202 205.996 88.5615 206.648 85.4715 206.648ZM128.946 206.648C122.835 206.648 118.44 204.863 115.762 201.292C113.153 197.721 111.848 191.919 111.848 183.885V172.04C111.848 169.156 111.951 166.169 112.157 163.079L104.947 163.388V155.56C109.273 155.56 112.775 155.251 115.453 154.633C118.131 154.015 119.917 153.294 120.809 152.47H126.474V183.988C126.474 188.52 127.058 191.85 128.225 193.979C129.393 196.108 131.247 197.172 133.787 197.172C135.504 197.172 137.255 196.691 139.04 195.73C140.894 194.769 142.439 193.601 143.675 192.228V172.04C143.675 168.813 143.813 165.826 144.087 163.079L136.877 163.388V155.56C141.203 155.56 144.671 155.251 147.28 154.633C149.958 154.015 151.744 153.294 152.636 152.47H158.301V188.417C158.301 191.713 158.164 194.734 157.889 197.481C160.087 197.275 162.318 197.172 164.584 197.172V205H145.014L144.396 199.644H144.293C141.753 201.841 139.281 203.558 136.877 204.794C134.543 206.03 131.899 206.648 128.946 206.648ZM191.175 206.648C187.055 206.648 183.416 205.584 180.257 203.455C177.167 201.326 174.73 198.305 172.944 194.391C171.228 190.408 170.369 185.808 170.369 180.589C170.369 175.096 171.434 170.186 173.562 165.86C175.691 161.465 178.678 158.032 182.523 155.56C186.437 153.088 190.901 151.852 195.913 151.852C198.591 151.852 201.647 152.47 205.08 153.706V146.908C205.08 143.612 205.218 140.591 205.492 137.844C203.226 138.05 200.789 138.153 198.179 138.153V130.325C202.505 130.325 206.007 130.016 208.685 129.398C211.363 128.78 213.149 128.059 214.041 127.235H219.603V188.417C219.603 191.713 219.466 194.734 219.191 197.481C221.457 197.275 223.689 197.172 225.886 197.172V205H206.316L205.801 200.262H205.698C201.647 204.519 196.806 206.648 191.175 206.648ZM196.531 197.275C198.248 197.275 199.862 196.829 201.372 195.936C202.883 195.043 204.119 193.842 205.08 192.331V161.431C204.325 160.882 203.261 160.435 201.887 160.092C200.514 159.68 199.141 159.474 197.767 159.474C193.373 159.543 190.214 161.431 188.291 165.139C186.437 168.847 185.51 173.482 185.51 179.044C185.51 183.988 186.403 188.28 188.188 191.919C190.042 195.49 192.823 197.275 196.531 197.275ZM247.177 143.303C244.842 143.303 242.919 142.513 241.409 140.934C239.898 139.286 239.143 137.295 239.143 134.96C239.143 132.625 239.932 130.634 241.512 128.986C243.091 127.269 244.945 126.411 247.074 126.411C249.271 126.411 251.091 127.235 252.533 128.883C254.043 130.531 254.799 132.557 254.799 134.96C254.799 137.363 254.078 139.355 252.636 140.934C251.262 142.513 249.443 143.303 247.177 143.303ZM232.654 198.305C235.263 198.305 236.911 197.584 237.598 196.142C238.353 194.7 238.731 192.365 238.731 189.138V172.04C238.731 168.813 238.868 165.826 239.143 163.079L231.933 163.388V155.56C236.259 155.56 239.761 155.251 242.439 154.633C245.117 154.015 246.902 153.294 247.795 152.47H253.357V188.417C253.357 191.713 253.219 194.734 252.945 197.481C255.142 197.275 257.374 197.172 259.64 197.172V205H232.654V198.305ZM291.585 206.648C286.572 206.648 282.075 205.584 278.092 203.455C274.109 201.326 270.985 198.271 268.719 194.288C266.453 190.305 265.32 185.67 265.32 180.383C265.32 174.821 266.487 169.877 268.822 165.551C271.157 161.225 274.281 157.86 278.195 155.457C282.178 153.054 286.538 151.852 291.276 151.852C296.22 151.852 300.649 152.916 304.563 155.045C308.477 157.174 311.567 160.264 313.833 164.315C316.099 168.298 317.232 172.967 317.232 178.323C317.232 184.022 316.133 189.001 313.936 193.258C311.807 197.515 308.786 200.811 304.872 203.146C301.027 205.481 296.598 206.648 291.585 206.648ZM291.791 199.335C295.568 199.335 298.211 197.584 299.722 194.082C301.233 190.58 301.988 186.185 301.988 180.898C301.988 174.993 301.13 169.877 299.413 165.551C297.696 161.225 294.984 159.062 291.276 159.062C287.499 159.062 284.753 160.847 283.036 164.418C281.319 167.989 280.461 172.383 280.461 177.602C280.461 183.576 281.388 188.692 283.242 192.949C285.096 197.206 287.946 199.335 291.791 199.335ZM445.795 206.648C441.469 206.648 438.036 205.378 435.495 202.837C433.023 200.228 431.787 196.932 431.787 192.949C431.787 186.906 434.603 182.34 440.233 179.25C445.864 176.091 452.628 174.34 460.524 173.997V168.641C460.524 162.392 458.19 159.268 453.52 159.268C450.499 159.268 448.027 160.229 446.104 162.152C446.928 163.113 447.34 164.418 447.34 166.066C447.34 167.714 446.757 169.19 445.589 170.495C444.491 171.8 442.843 172.452 440.645 172.452C438.585 172.452 436.972 171.8 435.804 170.495C434.637 169.122 434.053 167.439 434.053 165.448C434.053 162.77 435.015 160.401 436.937 158.341C438.86 156.281 441.469 154.702 444.765 153.603C448.13 152.436 451.804 151.852 455.786 151.852C468.49 151.852 474.841 158.41 474.841 171.525L474.738 188.417C474.738 191.713 474.601 194.734 474.326 197.481C476.592 197.275 478.824 197.172 481.021 197.172V205H461.554C461.417 204.107 461.28 202.528 461.142 200.262H461.039C456.851 204.519 451.769 206.648 445.795 206.648ZM452.284 196.554C455.374 196.554 458.087 195.318 460.421 192.846V181.31C456.37 181.722 453.005 182.752 450.327 184.4C447.718 186.048 446.413 188.28 446.413 191.095C446.413 192.949 446.963 194.322 448.061 195.215C449.229 196.108 450.636 196.554 452.284 196.554ZM509.08 232.913C500.771 232.913 494.763 231.643 491.055 229.102C487.416 226.561 485.596 223.334 485.596 219.42C485.596 217.017 486.351 214.751 487.862 212.622C489.441 210.562 491.948 208.88 495.381 207.575C492.703 206.82 490.746 205.652 489.51 204.073C488.343 202.494 487.759 200.64 487.759 198.511C487.759 196.451 488.549 194.357 490.128 192.228C491.776 190.099 494.317 188.52 497.75 187.49V187.387C494.66 186.151 492.188 184.228 490.334 181.619C488.549 178.941 487.656 175.782 487.656 172.143C487.656 168.298 488.72 164.83 490.849 161.74C493.046 158.65 495.896 156.247 499.398 154.53C502.969 152.745 506.711 151.852 510.625 151.852C512.685 151.852 514.848 152.127 517.114 152.676C519.38 153.157 521.303 153.946 522.882 155.045C524.187 151.474 525.938 148.522 528.135 146.187C530.332 143.784 532.942 142.582 535.963 142.582C538.229 142.582 539.98 143.166 541.216 144.333C542.452 145.5 543.07 147.114 543.07 149.174C543.07 150.753 542.555 152.195 541.525 153.5C540.564 154.805 539.019 155.457 536.89 155.457C535.791 155.457 534.693 155.079 533.594 154.324C532.564 153.5 531.946 152.539 531.74 151.44C530.847 151.715 529.955 152.607 529.062 154.118C528.169 155.56 527.654 156.899 527.517 158.135C529.44 159.852 530.916 161.843 531.946 164.109C533.045 166.375 533.594 168.813 533.594 171.422C533.594 175.267 532.495 178.769 530.298 181.928C528.101 185.018 525.217 187.456 521.646 189.241C518.075 190.958 514.264 191.816 510.213 191.816L507.329 191.713C505.818 191.576 504.72 191.507 504.033 191.507C502.522 191.507 501.252 191.782 500.222 192.331C499.192 192.88 498.677 193.636 498.677 194.597C498.677 195.833 499.604 196.726 501.458 197.275C503.381 197.756 506.848 198.133 511.861 198.408C520.513 198.889 527.071 200.331 531.534 202.734C535.997 205.137 538.229 209.154 538.229 214.785C538.229 218.493 536.787 221.72 533.903 224.467C531.088 227.214 527.414 229.308 522.882 230.75C518.419 232.192 513.818 232.913 509.08 232.913ZM510.625 184.915C513.234 184.915 515.294 183.748 516.805 181.413C518.384 179.078 519.174 176.366 519.174 173.276C519.174 169.362 518.419 165.963 516.908 163.079C515.397 160.195 513.269 158.753 510.522 158.753C507.913 158.753 505.818 159.955 504.239 162.358C502.66 164.761 501.87 167.611 501.87 170.907C501.87 174.752 502.66 178.048 504.239 180.795C505.818 183.542 507.947 184.915 510.625 184.915ZM512.067 225.806C515.157 225.806 517.801 225.394 519.998 224.57C522.264 223.746 523.981 222.682 525.148 221.377C526.315 220.141 526.899 218.871 526.899 217.566C526.899 215.437 525.663 213.824 523.191 212.725C520.788 211.626 517.08 210.974 512.067 210.768C511.518 210.699 510.625 210.665 509.389 210.665C508.702 210.596 507.501 210.493 505.784 210.356C504.067 210.287 502.66 210.15 501.561 209.944C500.531 210.768 499.707 211.832 499.089 213.137C498.54 214.442 498.265 215.746 498.265 217.051C498.265 219.729 499.501 221.858 501.973 223.437C504.514 225.016 507.878 225.806 512.067 225.806ZM565.71 232.913C557.401 232.913 551.393 231.643 547.685 229.102C544.045 226.561 542.226 223.334 542.226 219.42C542.226 217.017 542.981 214.751 544.492 212.622C546.071 210.562 548.577 208.88 552.011 207.575C549.333 206.82 547.376 205.652 546.14 204.073C544.972 202.494 544.389 200.64 544.389 198.511C544.389 196.451 545.178 194.357 546.758 192.228C548.406 190.099 550.946 188.52 554.38 187.49V187.387C551.29 186.151 548.818 184.228 546.964 181.619C545.178 178.941 544.286 175.782 544.286 172.143C544.286 168.298 545.35 164.83 547.479 161.74C549.676 158.65 552.526 156.247 556.028 154.53C559.598 152.745 563.341 151.852 567.255 151.852C569.315 151.852 571.478 152.127 573.744 152.676C576.01 153.157 577.932 153.946 579.512 155.045C580.816 151.474 582.567 148.522 584.765 146.187C586.962 143.784 589.571 142.582 592.593 142.582C594.859 142.582 596.61 143.166 597.846 144.333C599.082 145.5 599.7 147.114 599.7 149.174C599.7 150.753 599.185 152.195 598.155 153.5C597.193 154.805 595.648 155.457 593.52 155.457C592.421 155.457 591.322 155.079 590.224 154.324C589.194 153.5 588.576 152.539 588.37 151.44C587.477 151.715 586.584 152.607 585.692 154.118C584.799 155.56 584.284 156.899 584.147 158.135C586.069 159.852 587.546 161.843 588.576 164.109C589.674 166.375 590.224 168.813 590.224 171.422C590.224 175.267 589.125 178.769 586.928 181.928C584.73 185.018 581.846 187.456 578.276 189.241C574.705 190.958 570.894 191.816 566.843 191.816L563.959 191.713C562.448 191.576 561.349 191.507 560.663 191.507C559.152 191.507 557.882 191.782 556.852 192.331C555.822 192.88 555.307 193.636 555.307 194.597C555.307 195.833 556.234 196.726 558.088 197.275C560.01 197.756 563.478 198.133 568.491 198.408C577.143 198.889 583.7 200.331 588.164 202.734C592.627 205.137 594.859 209.154 594.859 214.785C594.859 218.493 593.417 221.72 590.533 224.467C587.717 227.214 584.044 229.308 579.512 230.75C575.048 232.192 570.448 232.913 565.71 232.913ZM567.255 184.915C569.864 184.915 571.924 183.748 573.435 181.413C575.014 179.078 575.804 176.366 575.804 173.276C575.804 169.362 575.048 165.963 573.538 163.079C572.027 160.195 569.898 158.753 567.152 158.753C564.542 158.753 562.448 159.955 560.869 162.358C559.289 164.761 558.5 167.611 558.5 170.907C558.5 174.752 559.289 178.048 560.869 180.795C562.448 183.542 564.577 184.915 567.255 184.915ZM568.697 225.806C571.787 225.806 574.43 225.394 576.628 224.57C578.894 223.746 580.61 222.682 581.778 221.377C582.945 220.141 583.529 218.871 583.529 217.566C583.529 215.437 582.293 213.824 579.821 212.725C577.417 211.626 573.709 210.974 568.697 210.768C568.147 210.699 567.255 210.665 566.019 210.665C565.332 210.596 564.13 210.493 562.414 210.356C560.697 210.287 559.289 210.15 558.191 209.944C557.161 210.768 556.337 211.832 555.719 213.137C555.169 214.442 554.895 215.746 554.895 217.051C554.895 219.729 556.131 221.858 558.603 223.437C561.143 225.016 564.508 225.806 568.697 225.806ZM624.606 206.648C619.593 206.648 615.164 205.549 611.319 203.352C607.473 201.086 604.486 197.893 602.358 193.773C600.229 189.653 599.165 184.846 599.165 179.353C599.165 174.546 600.229 170.049 602.358 165.86C604.555 161.603 607.611 158.204 611.525 155.663C615.439 153.122 619.902 151.852 624.915 151.852C631.575 151.852 637.103 153.809 641.498 157.723C645.961 161.637 648.158 168.16 648.09 177.293L614.306 177.911C614.306 183.954 615.439 188.726 617.705 192.228C620.039 195.73 623.747 197.481 628.829 197.481C631.232 197.481 633.807 196.863 636.554 195.627C639.3 194.391 641.772 192.434 643.97 189.756L648.605 194.082C642.768 202.459 634.768 206.648 624.606 206.648ZM633.876 170.701C633.67 162.942 630.854 159.062 625.43 159.062C622.477 159.062 620.108 160.126 618.323 162.255C616.606 164.315 615.473 167.13 614.924 170.701H633.876ZM655.618 198.305C658.227 198.305 659.875 197.584 660.562 196.142C661.317 194.7 661.695 192.365 661.695 189.138V171.834C661.695 168.744 661.832 165.826 662.107 163.079L654.897 163.388V155.56C659.223 155.56 662.725 155.251 665.403 154.633C668.081 154.015 669.866 153.294 670.759 152.47H675.806C675.943 153.5 676.046 154.839 676.115 156.487C676.183 158.135 676.218 159.749 676.218 161.328H676.424C681.093 155.011 686.037 151.852 691.256 151.852C693.865 151.852 695.994 152.573 697.642 154.015C699.358 155.457 700.217 157.586 700.217 160.401C700.217 162.186 699.633 163.834 698.466 165.345C697.298 166.856 695.547 167.611 693.213 167.611C691.496 167.611 689.951 167.165 688.578 166.272C687.273 165.379 686.518 163.834 686.312 161.637C684.389 161.637 682.398 162.77 680.338 165.036C678.346 167.233 677.007 169.431 676.321 171.628V188.417C676.321 191.713 676.183 194.734 675.909 197.481C678.106 197.275 680.338 197.172 682.604 197.172V205H655.618V198.305Z" fill="#663399"/>
<path d="M443.109 112.517L428.793 107.938C428.147 123.429 426.169 156.376 420.66 173.6C409.608 208.148 356.702 205.676 356.168 205.647L352.796 205.464L388.152 94.9372L375.12 90.7685C369.185 88.8698 365.357 84.1959 366.587 80.3504C367.817 76.505 373.647 74.9203 379.583 76.819L392.486 80.9468L411.998 19.9527C414.181 13.1264 424.616 10.3407 435.259 13.7452C445.796 17.1158 452.591 25.4131 450.41 32.2405L449.202 36.0289C449.016 36.6096 449.261 38.8074 449.461 40.5735C449.804 43.6539 450.165 46.8394 449.56 48.6493C449.07 50.114 447.654 51.3372 446.156 52.6337C444.451 54.1083 442.69 55.6313 442.411 57.4411C442.151 59.1359 442.374 61.9052 442.551 64.1312C442.739 66.4956 442.827 67.7638 442.61 68.4552C442.007 70.3489 440.533 71.5509 439.227 72.6104C438.025 73.589 436.983 74.4338 436.575 75.7328C435.983 77.5943 436.191 79.6901 436.407 81.9073C436.637 84.2427 436.871 86.6574 436.157 88.9232C435.768 90.1486 434.59 92.0816 433.288 93.9986L447.571 98.5676C453.507 100.466 457.336 105.141 456.106 108.986C454.876 112.832 449.044 114.416 443.109 112.517ZM446.631 101.505L378.643 79.7569C375.207 78.6578 371.831 79.574 371.119 81.8C370.407 84.0259 372.624 86.7315 376.06 87.8306L444.048 109.579C447.484 110.678 450.859 109.762 451.571 107.536C452.283 105.31 450.067 102.605 446.631 101.505ZM416.125 172.15C421.634 154.927 423.573 121.61 424.19 106.465L392.683 96.3867L358.765 202.419C370.276 202.283 407.322 199.669 416.125 172.15Z" fill="#663399"/>
</svg>
